<svg id="Layer_1" data-name="Layer 1" xmlns="http://www.w3.org/2000/svg" viewBox="0 0 356.3 439.45"><defs><style>.cls-1{fill:#dda692;}.cls-2{fill:#03121e;}</style></defs><path class="cls-1" d="M347,227.39c0-17.85,13.5-32.31,30.16-32.31h.67c16.63,0,30.13,14.4,30.17,32.22.14,58.29,0,64,0,151.06-.05,48.89-37.06,88.48-82.68,88.48h-98c-30,0-57.62-17.39-72.23-45.44L67.72,253.58,76.84,246c18.9-17.37,47.32-15.24,63.76,4.78l24.45,29.76.14-204.73c0-17.84,13.51-32.3,30.16-32.3h0c16.67,0,30.17,14.48,30.17,32.32V199.76c.4-17.47,13.74-31.48,30.15-31.48h.7c16.67,0,30.17,14.47,30.17,32.32V211c0-17.85,13.51-32.31,30.18-32.31h.07c16.66,0,30.17,14.46,30.17,32.31Z" transform="translate(-59.73 -35.55)"/><path class="cls-2" d="M377.8,187.5h-.67a36.54,36.54,0,0,0-24.67,9.4c-5.48-15.18-19.41-26.1-35.73-26.1a37.06,37.06,0,0,0-26.5,11.41c-6.37-12.9-19.14-21.66-33.85-21.66h-.7a35,35,0,0,0-21.79,7.14V75.85c0-22.22-17.31-40.3-38.35-40.3s-38.23,18.07-38.25,40.27l-.17,182.46-10.33-12.55A52.08,52.08,0,0,0,110,226.41,51.24,51.24,0,0,0,71.6,240l-9,7.44a8,8,0,0,0-2,9.83L148,425.18c16,30.68,46.36,49.82,79.3,49.82h98c49.94,0,90.62-43.35,90.67-96.54,0-24.11.05-42,.07-56.5.05-38.18.06-52.29,0-94.45C415.9,205.35,398.79,187.5,377.8,187.5ZM400,321.89c0,14.48,0,32.44-.07,56.55,0,44.39-33.55,80.58-74.69,80.58h-98c-27,0-51.93-15.85-65.14-41.22L77.78,255.66l4.16-3.48.31-.27a35.39,35.39,0,0,1,26.62-9.56,36.22,36.22,0,0,1,25.56,13.52l24.44,29.76A8,8,0,0,0,173,280.56l.14-204.73c0-13.4,10.14-24.31,22.38-24.31s22.36,10.92,22.36,24.33V199.69c0,.3,0,.59,0,.9,0,.13,0,.26,0,.38v53a8,8,0,1,0,16,0v-54c0-13,9.88-23.38,21.79-23.38h.7c12.24,0,22.43,10.66,22.43,24.08v48.29a8,8,0,1,0,16,0V211c0-13.41,9.69-24.33,22-24.33S338.7,197.59,338.7,211v35.74a8,8,0,1,0,16,0V227.39c0-13.42,10.23-23.92,22.46-23.92h.67c12.2,0,22.15,10.68,22.18,24.05C400.08,269.65,400.07,283.73,400,321.89Z" transform="translate(-59.73 -35.55)"/></svg>